<svg width="39" height="33" viewBox="0 0 39 33" fill="none" xmlns="http://www.w3.org/2000/svg">
<path d="M2.81124 1.82037C2.81124 4.99064 2.36287 7.64645 1.00914 12.6239C0.616811 14.0441 0.237419 15.5919 0.151194 16.0536C-0.215263 18.0894 0.0951477 20.1692 0.966023 21.5631C1.62565 22.5964 2.32838 23.1988 3.55278 23.788L4.50988 24.2453L4.42366 25.3929C4.26845 27.2704 3.94511 28.9501 3.67781 29.2095C3.55278 29.337 2.85005 29.7547 2.13006 30.1285L0.823751 30.8188C0.823751 30.8188 2.38443 33.0261 2.41461 32.9998C2.62586 32.8283 6.22577 30.4891 7.77351 29.5437L9.73082 28.3389L10.2784 29.2007C10.938 30.1901 11.6148 30.7793 12.753 31.3245C13.4989 31.6675 13.7101 31.7114 15.1156 31.6982C17.7196 31.685 19.1121 31.0651 24.1046 27.7101C30.5758 23.3483 32.7271 22.1874 38.5214 19.9625L39 19.7779L38.0989 19.2634C36.7193 18.4764 34.9043 17.6585 33.3005 17.0825C25.0143 14.1277 18.293 15.1874 13.4256 20.2264C12.3866 21.3036 10.6836 23.5241 10.6836 23.7968C10.6836 23.8407 11.2484 23.6253 11.9339 23.3219C14.4948 22.1874 17.2928 21.3256 20.177 20.798C21.6816 20.5254 26.2387 20.3407 26.1136 20.5561C26.0576 20.6441 25.7213 20.7408 25.3419 20.798C24.1865 20.9563 20.966 21.8445 18.6336 22.6491C15.1328 23.8847 11.5588 25.3753 7.53639 27.3276C6.53618 27.8157 5.69548 28.1718 5.6653 28.1454C5.63512 28.1191 5.70841 27.2265 5.82051 26.18C6.4672 20.3407 6.4672 12.8965 5.82051 10.6276C5.65237 10.0516 6.03176 10.6276 6.32493 11.4015C7.26909 13.8814 7.77351 17.2276 7.70453 20.6265C7.64848 23.3659 7.60537 23.3219 8.8427 21.6026C9.68771 20.4418 10.1361 19.536 10.5586 18.1598C11.007 16.6824 11.0242 14.2024 10.5715 12.3777C9.72651 8.904 7.23891 4.67405 4.0572 1.31471L2.82418 0L2.81124 1.82037Z" fill="#4F5A49" fill-opacity="0.5"/>
</svg>
