<svg width="25" height="21" viewBox="0 0 25 21" fill="none" xmlns="http://www.w3.org/2000/svg">
<path d="M1.80208 1.15842C1.80208 3.17586 1.51466 4.86592 0.646882 8.03339C0.395391 8.93718 0.152192 9.92211 0.0969193 10.2159C-0.137989 11.5114 0.0609921 12.835 0.619246 13.722C1.04208 14.3795 1.49255 14.7629 2.27742 15.1378L2.89095 15.4288L2.83568 16.1591C2.73619 17.3539 2.52891 18.4228 2.35757 18.5879C2.27742 18.669 1.82695 18.9348 1.36543 19.1727L0.528046 19.612C0.528046 19.612 1.52848 21.0166 1.54783 20.9998C1.68324 20.8907 3.99088 19.4021 4.98302 18.8005L6.23771 18.0338L6.58869 18.5823C7.01153 19.2119 7.44542 19.5868 8.17501 19.9338C8.65312 20.152 8.78854 20.18 9.68948 20.1716C11.3587 20.1632 12.2514 19.7687 15.4517 17.6337C19.5999 14.858 20.9789 14.1193 24.6932 12.7034L25 12.5859L24.4224 12.2585C23.538 11.7577 22.3746 11.2372 21.3465 10.8707C16.0348 8.99034 11.7263 9.66469 8.60614 12.8713C7.94011 13.5569 6.84847 14.9699 6.84847 15.1434C6.84847 15.1714 7.21051 15.0343 7.64992 14.8412C9.29152 14.1193 11.0851 13.5709 12.934 13.2351C13.8985 13.0616 16.8197 12.9441 16.7395 13.0812C16.7036 13.1371 16.488 13.1987 16.2448 13.2351C15.5042 13.3358 13.4397 13.901 11.9446 14.4131C9.70054 15.1994 7.40949 16.1479 4.83102 17.3903C4.18986 17.7009 3.65095 17.9275 3.6316 17.9107C3.61226 17.8939 3.65924 17.3259 3.73109 16.66C4.14564 12.9441 4.14564 8.20687 3.73109 6.76304C3.62331 6.39649 3.86651 6.76304 4.05444 7.25551C4.65967 8.83365 4.98302 10.963 4.9388 13.126C4.90287 14.8692 4.87524 14.8412 5.6684 13.7471C6.21007 13.0084 6.49749 12.432 6.76833 11.5562C7.05574 10.616 7.0668 9.03791 6.77662 7.87669C6.23494 5.66618 4.64033 2.9744 2.60077 0.836636L1.81037 0L1.80208 1.15842Z" fill="#4F5A49" fill-opacity="0.5"/>
</svg>
